<svg xmlns="http://www.w3.org/2000/svg"
     xmlns:xlink="http://www.w3.org/1999/xlink"
     version="1.1"
     x="0px"
     y="0px"
     viewBox="0 0 97.239 100"
     width="90px"
     height="90px"
      fill="#8b8989"
     style="enable-background:new 0 0 100 71;"
     xml:space="preserve">
<path d="M77.8,51.7c4.9,0,8.8,3.9,8.8,8.8c0,4.8-3.9,8.8-8.7,8.8c-4.8,0-8.9-4-8.8-8.9C69,55.6,73,51.7,77.8,51.7z" />
<path d="M23.7,51.7c4.9,0,8.8,3.9,8.8,8.8c0,4.8-3.9,8.8-8.7,8.8c-4.8,0-8.9-4-8.8-8.9C14.9,55.6,18.8,51.7,23.7,51.7z" />
<path d="M97.8,39.4c0.2-3.7-3-7.3-4.7-10.4c-2.7-4.5-5.4-9.1-8-13.6c-0.7-1.2-1.7-1.8-3.1-1.8c-4.3,0-8.6,0-12.9,0V5.3  C69,3.5,67.6,2,65.8,2H5.5C3.7,2,2.2,3.5,2.2,5.3v39.8c0,1.8,1.5,3.3,3.3,3.3h18.1c1.2,0.1,2.4,0.3,3.4,0.7c2.9,1.1,5.5,3.3,7,6.1  c0.7,1.3,1.3,2.7,2.5,3.5c1.8,1.1,4.3,0.6,6.3,0.6c2.5,0,5,0,7.4,0c2.6,0,5.2,0,7.8,0c2.1,0,4.6,0.3,6.4-1.1c0.5-0.4,0.9-1,1.3-1.5  c0.5-0.6,1.2-1.7,1.6-2.4c2.1-3.6,6-5.8,10.1-5.7c4.9,0,8.1,2.6,10.9,6.3c0.6,0.7,1.2,1.5,2.1,1.7c1.5,0.2,2.5-1.4,3-2.8  c1.7-4.3,3.1-8.7,4.1-13.2C97.7,40.1,97.7,39.7,97.8,39.4z M86.5,34.2c-2.6,0-5.3,0-7.9,0c-2.7,0-5.3,0-8,0c-1.1,0-1.6-0.5-1.6-1.6  c0-3.8,0-7.5,0-11.3c0-0.8,0.7-1.5,1.5-1.5c3,0,5.9,0,8.9,0c0.8,0,1.3,0.5,1.6,1.1c1.6,2.8,3.3,5.6,4.9,8.3c0.6,1,1.1,1.9,1.7,2.9  C88.4,33.4,87.9,34.2,86.5,34.2z" />
<text x="0"
      y="86"
      fill="#8b8989"
      font-size="5px"
      font-weight="bold"
      font-family="'Helvetica Neue', Helvetica, Arial-Unicode, Arial, Sans-serif">Created by WavoCC</text>
<text x="0"
      y="91"
      fill="#8b8989"
      font-size="5px"
      font-weight="bold"
      font-family="'Helvetica Neue', Helvetica, Arial-Unicode, Arial, Sans-serif">from the Noun Project</text>
</svg>