<svg xmlns="http://www.w3.org/2000/svg"
     xmlns:xlink="http://www.w3.org/1999/xlink"
     version="1.1"
     x="0px"
     y="0px"
     viewBox="0 0 97.239 100"
     width="110px"
     height="110px"
     fill="#8b8989"
     style="enable-background:new 0 0 64 64;"
     xml:space="preserve">
<g>
<path d="M39.64,44.81H24.36c-5.75,0-10.43,4.68-10.43,10.43v4.88c0,1.03,0.83,1.88,1.88,1.88h32.38c1.04,0,1.88-0.84,1.88-1.88   v-4.88C50.07,49.49,45.39,44.81,39.64,44.81z" />
<path d="M17.1,21.66c0,1.52,0.57,2.92,1.52,3.97v7.47c0,5.08,4.14,9.21,9.23,9.21h8.29c5.09,0,9.24-4.13,9.24-9.21v-7.46   c0.48-0.52,0.86-1.15,1.12-1.84c0.53-1.4,0.53-2.9,0-4.25c1.24-1.41,1.91-3.22,1.91-5.16c0-2.95-1.59-5.62-4.16-6.97l-8.78-4.58   c-2.18-1.13-4.78-1.13-6.96,0l-8.77,4.58c-2.37,1.24-3.92,3.59-4.14,6.31c-0.18,2.17,0.51,4.25,1.88,5.82   C17.23,20.22,17.1,20.93,17.1,21.66z M36.15,38.55h-8.29c-3.02,0-5.48-2.45-5.48-5.46v-5.54l0,0l8.57,1.65   c0.35,0.07,0.7,0.1,1.06,0.1c0.36,0,0.71-0.04,1.07-0.1l8.56-1.64l0,0v5.53C41.63,36.11,39.17,38.55,36.15,38.55z" />
</g>
<text x="0"
      y="79"
      fill="#000000"
      font-size="5px"
      font-weight="bold"
      font-family="'Helvetica Neue', Helvetica, Arial-Unicode, Arial, Sans-serif">Created by andika</text>
<text x="0"
      y="84"
      fill="#000000"
      font-size="5px"
      font-weight="bold"
      font-family="'Helvetica Neue', Helvetica, Arial-Unicode, Arial, Sans-serif">from the Noun Project</text>
</svg>