<svg xmlns="http://www.w3.org/2000/svg"
     xmlns:xlink="http://www.w3.org/1999/xlink"
     version="1.1"
     x="0px"
     y="0px"
      viewBox="0 0 97.239 100"
     width="110px"
     height="110px"
     fill="#8b8989"
     style="enable-background:new 0 0 100 100;"
     xml:space="preserve">
<path d="M78.3,49.4l-9.2,29.6C69,79.6,68.4,80,67.7,80H32.3c-0.7,0-1.2-0.4-1.4-1.1l-9.2-29.6c-0.1-0.4-0.1-0.8,0.1-1.2  s0.5-0.6,0.9-0.7l26.9-6.8c0.2-0.1,0.5-0.1,0.7,0l26.9,6.8c0.4,0.1,0.7,0.4,0.9,0.7S78.5,49,78.3,49.4z M50,37.6  c0.4,0,0.7,0,1.1,0.1L71.9,43V31.3c0-0.8-0.7-1.5-1.5-1.5H29.6c-0.8,0-1.5,0.7-1.5,1.5V43l20.8-5.3C49.3,37.6,49.6,37.6,50,37.6z   M65.7,21.5c0-0.8-0.7-1.5-1.5-1.5H35.8c-0.8,0-1.5,0.7-1.5,1.5v5.3h31.4V21.5z" />
<text x="0"
      y="115"
      fill="#8b8989"
      font-size="5px"
      font-weight="bold"
      font-family="'Helvetica Neue', Helvetica, Arial-Unicode, Arial, Sans-serif">Created by Mello</text>
<text x="0"
      y="120"
      fill="#8b8989"
      font-size="5px"
      font-weight="bold"
      font-family="'Helvetica Neue', Helvetica, Arial-Unicode, Arial, Sans-serif">from the Noun Project</text>
</svg>